<svg width="125" height="118" viewBox="0 0 125 118" fill="none" xmlns="http://www.w3.org/2000/svg">
<path d="M52.2692 13.3601L110.602 48.8396L89.6608 78.6394L72.8383 68.6565L68.2977 75.2167L84.4627 85.6957L71.3992 103.814L13.4385 62.704L21.5395 50.6998L24.4922 53.4528L52.2692 13.3601Z" fill="#4C4C4C" stroke="white"/>
<g opacity="0.7" filter="url(#filter0_f_348_14295)">
<path d="M52.2692 13.3601L110.602 48.8396L89.6608 78.6394L72.8383 68.6565L68.2977 75.2167L84.4627 85.6957L71.3992 103.814L13.4385 62.704L21.5395 50.6998L24.4922 53.4528L52.2692 13.3601Z" fill="#6B6B6B"/>
<path d="M52.2692 13.3601L110.602 48.8396L89.6608 78.6394L72.8383 68.6565L68.2977 75.2167L84.4627 85.6957L71.3992 103.814L13.4385 62.704L21.5395 50.6998L24.4922 53.4528L52.2692 13.3601Z" stroke="white" stroke-width="0.5"/>
</g>
<g opacity="0.55" filter="url(#filter1_f_348_14295)">
<path d="M52.2692 13.3601L110.602 48.8396L89.6608 78.6394L72.8383 68.6565L68.2977 75.2167L84.4627 85.6957L71.3992 103.814L13.4385 62.704L21.5395 50.6998L24.4922 53.4528L52.2692 13.3601Z" stroke="white" stroke-width="5"/>
</g>
<defs>
<filter id="filter0_f_348_14295" x="3.09473" y="3.02405" width="117.866" height="111.137" filterUnits="userSpaceOnUse" color-interpolation-filters="sRGB">
<feFlood flood-opacity="0" result="BackgroundImageFix"/>
<feBlend mode="normal" in="SourceGraphic" in2="BackgroundImageFix" result="shape"/>
<feGaussianBlur stdDeviation="5" result="effect1_foregroundBlur_348_14295"/>
</filter>
<filter id="filter1_f_348_14295" x="0" y="0" width="124.183" height="117.288" filterUnits="userSpaceOnUse" color-interpolation-filters="sRGB">
<feFlood flood-opacity="0" result="BackgroundImageFix"/>
<feBlend mode="normal" in="SourceGraphic" in2="BackgroundImageFix" result="shape"/>
<feGaussianBlur stdDeviation="5" result="effect1_foregroundBlur_348_14295"/>
</filter>
</defs>
</svg>
