<svg width="427" height="307" viewBox="0 0 427 307" fill="none" xmlns="http://www.w3.org/2000/svg">
<path d="M303.995 59.9661L293.4 41.2156L322.07 24.4741L333.149 43.0634L342.242 38.1402L341.101 35.9576L380.242 13.4124L413.465 70.9039L381.036 89.4311L386.73 99.7116L325.928 134.298L320.147 124.601L258.279 160.316L263.774 170.237L203.196 205.332L197.328 195.175L167.355 212.574L172.119 220.808L139.925 239.41L145.769 249.517L84.88 284.339L78.9251 274.369L46.4463 293.094L13.4092 235.764L52.5872 212.971L54.0883 215.203L62.5989 210.317L51.9918 191.405L80.8605 174.8L94.656 197.99L101.715 194.295L98.7252 189.198L101.144 187.586L99.9533 185.775L136.278 164.867L131.725 156.695L171.126 133.988L174.402 139.755L183.284 134.807L170.06 112.224L199.152 95.3589L212.165 117.47L220.974 112.882L217.637 106.904L294.07 63.116L295.149 65.187L304.019 59.9661H303.995Z" fill="#4C4C4C" stroke="white"/>
<g opacity="0.7" filter="url(#filter0_f_348_14256)">
<path d="M303.995 59.9661L293.4 41.2156L322.07 24.4741L333.149 43.0634L342.242 38.1402L341.101 35.9576L380.242 13.4124L413.465 70.9039L381.036 89.4311L386.73 99.7116L325.928 134.298L320.147 124.601L258.279 160.316L263.774 170.237L203.196 205.332L197.328 195.175L167.355 212.574L172.119 220.808L139.925 239.41L145.769 249.517L84.88 284.339L78.9251 274.369L46.4463 293.094L13.4092 235.764L52.5872 212.971L54.0883 215.203L62.5989 210.317L51.9918 191.405L80.8605 174.8L94.656 197.99L101.715 194.295L98.7252 189.198L101.144 187.586L99.9533 185.775L136.278 164.867L131.725 156.695L171.126 133.988L174.402 139.755L183.284 134.807L170.06 112.224L199.152 95.3589L212.165 117.47L220.974 112.882L217.637 106.904L294.07 63.116L295.149 65.187L304.019 59.9661H303.995Z" fill="#6B6B6B"/>
<path d="M303.995 59.9661L293.4 41.2156L322.07 24.4741L333.149 43.0634L342.242 38.1402L341.101 35.9576L380.242 13.4124L413.465 70.9039L381.036 89.4311L386.73 99.7116L325.928 134.298L320.147 124.601L258.279 160.316L263.774 170.237L203.196 205.332L197.328 195.175L167.355 212.574L172.119 220.808L139.925 239.41L145.769 249.517L84.88 284.339L78.9251 274.369L46.4463 293.094L13.4092 235.764L52.5872 212.971L54.0883 215.203L62.5989 210.317L51.9918 191.405L80.8605 174.8L94.656 197.99L101.715 194.295L98.7252 189.198L101.144 187.586L99.9533 185.775L136.278 164.867L131.725 156.695L171.126 133.988L174.402 139.755L183.284 134.807L170.06 112.224L199.152 95.3589L212.165 117.47L220.974 112.882L217.637 106.904L294.07 63.116L295.149 65.187L304.019 59.9661H303.995Z" stroke="white" stroke-width="0.5"/>
</g>
<g opacity="0.55" filter="url(#filter1_f_348_14256)">
<path d="M303.995 59.9661L293.4 41.2156L322.07 24.4741L333.149 43.0634L342.242 38.1402L341.101 35.9576L380.242 13.4124L413.465 70.9039L381.036 89.4311L386.73 99.7116L325.928 134.298L320.147 124.601L258.279 160.316L263.774 170.237L203.196 205.332L197.328 195.175L167.355 212.574L172.119 220.808L139.925 239.41L145.769 249.517L84.88 284.339L78.9251 274.369L46.4463 293.094L13.4092 235.764L52.5872 212.971L54.0883 215.203L62.5989 210.317L51.9918 191.405L80.8605 174.8L94.656 197.99L101.715 194.295L98.7252 189.198L101.144 187.586L99.9533 185.775L136.278 164.867L131.725 156.695L171.126 133.988L174.402 139.755L183.284 134.807L170.06 112.224L199.152 95.3589L212.165 117.47L220.974 112.882L217.637 106.904L294.07 63.116L295.149 65.187L304.019 59.9661H303.995Z" stroke="white" stroke-width="5"/>
</g>
<defs>
<filter id="filter0_f_348_14256" x="3.06836" y="3.07114" width="420.739" height="300.365" filterUnits="userSpaceOnUse" color-interpolation-filters="sRGB">
<feFlood flood-opacity="0" result="BackgroundImageFix"/>
<feBlend mode="normal" in="SourceGraphic" in2="BackgroundImageFix" result="shape"/>
<feGaussianBlur stdDeviation="5" result="effect1_foregroundBlur_348_14256"/>
</filter>
<filter id="filter1_f_348_14256" x="0" y="0" width="426.887" height="306.509" filterUnits="userSpaceOnUse" color-interpolation-filters="sRGB">
<feFlood flood-opacity="0" result="BackgroundImageFix"/>
<feBlend mode="normal" in="SourceGraphic" in2="BackgroundImageFix" result="shape"/>
<feGaussianBlur stdDeviation="5" result="effect1_foregroundBlur_348_14256"/>
</filter>
</defs>
</svg>
